# xmcd
#
# Track frame offsets:
# 150
# 22567
# 44519
# 63476
# 83071
# 104363
# 123173
# 144263
# 166196
# 181942
# 201490
# 226724
# 244133
# 268628
# 289683
# 306138
# 314294
# 323324
# 345390
#
# Disc length: 4711 seconds
#
# Revision: 1
# Processed by: cddbd v1.5.1PL2 Copyright (c) Steve Scherf et al.
# Submitted via: Easy CD Ripper v2.37
#
DISCID=f4126513
DTITLE=hyderabad artist - hyder album
DYEAR=2000
DGENRE=Country
TTITLE0=1 - hyderabad artist
TTITLE1=2 - hyderabad artist
TTITLE2=3 - hyderabad artist
TTITLE3=3 - hyderabad artist
TTITLE4=4 - hyderabad artist
TTITLE5=6 - hyderabad artist
TTITLE6=7 - hyderabad artist
TTITLE7=8 - hyderabad artist
TTITLE8=9 - hyderabad artist
TTITLE9=10 - hyderabad artist
TTITLE10=11 - hyderabad artist
TTITLE11=12 - hyderabad artist
TTITLE12=13 - hyderabad artist
TTITLE13=14 - hyderabad artist
TTITLE14=15 - hyderabad artist
TTITLE15=16 - hyderabad artist
TTITLE16=17 - hyderabad artist
TTITLE17=18 - hyderabad artist
TTITLE18=19 - hyderabad artist
EXTD=check
EXTT0=
EXTT1=
EXTT2=
EXTT3=
EXTT4=
EXTT5=
EXTT6=
EXTT7=
EXTT8=
EXTT9=
EXTT10=
EXTT11=
EXTT12=
EXTT13=
EXTT14=
EXTT15=
EXTT16=
EXTT17=
EXTT18=
PLAYORDER=
